<svg width="191" height="18" viewBox="0 0 191 18" fill="none" xmlns="http://www.w3.org/2000/svg">
<path d="M10.1045 17.942C9.45648 17.942 8.88648 17.822 8.39448 17.582C7.91448 17.342 7.54248 16.988 7.27848 16.52C7.02648 16.064 6.90048 15.518 6.90048 14.882C6.90048 14.726 6.90648 14.564 6.91848 14.396C6.93048 14.24 6.94848 14.078 6.97248 13.91C5.98848 13.946 5.08848 13.808 4.27248 13.496C3.45648 13.184 2.74848 12.74 2.14848 12.164C1.56048 11.588 1.10448 10.91 0.780484 10.13C0.456484 9.338 0.294484 8.48 0.294484 7.556C0.294484 6.68 0.444484 5.858 0.744484 5.09C1.04448 4.322 1.47648 3.644 2.04048 3.056C2.60448 2.468 3.28248 2.012 4.07448 1.688C4.86648 1.352 5.74848 1.184 6.72048 1.184C7.70448 1.184 8.59248 1.346 9.38448 1.67C10.1765 1.982 10.8545 2.426 11.4185 3.002C11.9825 3.578 12.4145 4.244 12.7145 5C13.0145 5.744 13.1645 6.548 13.1645 7.412V14.612C13.1645 15.248 13.0445 15.818 12.8045 16.322C12.5765 16.826 12.2345 17.222 11.7785 17.51C11.3225 17.798 10.7645 17.942 10.1045 17.942ZM9.96048 16.016C10.2845 16.016 10.5365 15.896 10.7165 15.656C10.9085 15.416 11.0045 15.086 11.0045 14.666V10.922C10.5005 11.306 10.1045 11.684 9.81648 12.056C9.52848 12.428 9.31848 12.782 9.18648 13.118C9.06649 13.454 8.98848 13.754 8.95248 14.018C8.92849 14.282 8.91649 14.492 8.91649 14.648C8.91649 14.936 8.96448 15.182 9.06048 15.386C9.15648 15.59 9.28248 15.746 9.43848 15.854C9.60648 15.962 9.78048 16.016 9.96048 16.016ZM6.72048 12.038C6.91248 12.038 7.08648 12.032 7.24248 12.02C7.39848 11.996 7.56648 11.966 7.74648 11.93C7.93848 11.57 8.17848 11.204 8.46648 10.832C8.75448 10.46 9.10848 10.1 9.52848 9.752C9.94849 9.392 10.4405 9.05 11.0045 8.726V7.412C11.0045 6.8 10.8965 6.23 10.6805 5.702C10.4765 5.174 10.1765 4.718 9.78048 4.334C9.39648 3.938 8.94648 3.632 8.43049 3.416C7.91448 3.188 7.34448 3.074 6.72048 3.074C6.10848 3.074 5.53848 3.188 5.01048 3.416C4.49448 3.644 4.04448 3.962 3.66048 4.37C3.27648 4.766 2.97648 5.24 2.76048 5.792C2.54448 6.332 2.43648 6.92 2.43648 7.556C2.43648 8.192 2.54448 8.786 2.76048 9.338C2.97648 9.878 3.27648 10.352 3.66048 10.76C4.04448 11.156 4.49448 11.468 5.01048 11.696C5.53848 11.924 6.10848 12.038 6.72048 12.038ZM19.1516 14.216C18.2756 14.216 17.5196 14 16.8836 13.568C16.2476 13.136 15.7556 12.56 15.4076 11.84C15.0716 11.108 14.9036 10.304 14.9036 9.428C14.9036 8.516 15.0956 7.7 15.4796 6.98C15.8756 6.248 16.4336 5.672 17.1536 5.252C17.8856 4.82 18.7556 4.604 19.7636 4.604C20.7596 4.604 21.6056 4.82 22.3016 5.252C23.0096 5.672 23.5496 6.248 23.9216 6.98C24.3056 7.7 24.4976 8.504 24.4976 9.392V14H22.4276V12.29H22.3916C22.2116 12.626 21.9776 12.944 21.6896 13.244C21.4016 13.532 21.0476 13.766 20.6276 13.946C20.2076 14.126 19.7156 14.216 19.1516 14.216ZM19.7096 12.452C20.2496 12.452 20.7176 12.32 21.1136 12.056C21.5216 11.78 21.8396 11.414 22.0676 10.958C22.2956 10.49 22.4036 9.968 22.3916 9.392C22.3916 8.816 22.2836 8.306 22.0676 7.862C21.8516 7.406 21.5456 7.046 21.1496 6.782C20.7536 6.506 20.2796 6.368 19.7276 6.368C19.1516 6.368 18.6596 6.506 18.2516 6.782C17.8436 7.046 17.5316 7.406 17.3156 7.862C17.0996 8.318 16.9916 8.834 16.9916 9.41C16.9916 9.974 17.0996 10.49 17.3156 10.958C17.5316 11.414 17.8376 11.78 18.2336 12.056C18.6416 12.32 19.1336 12.452 19.7096 12.452ZM26.9024 14V7.43C26.9024 6.614 27.1304 5.978 27.5864 5.522C28.0544 5.054 28.6964 4.82 29.5124 4.82H31.7264V6.584H29.8904C29.6024 6.584 29.3744 6.668 29.2064 6.836C29.0504 7.004 28.9724 7.232 28.9724 7.52V14H26.9024ZM33.1619 14V8.51C33.1619 7.802 33.3299 7.154 33.6659 6.566C34.0019 5.966 34.4879 5.492 35.1239 5.144C35.7599 4.784 36.5219 4.604 37.4099 4.604C37.8419 4.604 38.2559 4.658 38.6519 4.766C39.0479 4.874 39.4139 5.048 39.7499 5.288C40.0979 5.516 40.3919 5.804 40.6319 6.152H40.6499C40.8899 5.804 41.1779 5.516 41.5139 5.288C41.8619 5.048 42.2339 4.874 42.6299 4.766C43.0379 4.658 43.4579 4.604 43.8899 4.604C44.7899 4.604 45.5519 4.784 46.1759 5.144C46.8119 5.492 47.2979 5.966 47.6339 6.566C47.9699 7.154 48.1379 7.802 48.1379 8.51V14H46.0859V8.51C46.0859 8.114 45.9839 7.754 45.7799 7.43C45.5879 7.106 45.3299 6.848 45.0059 6.656C44.6819 6.464 44.3099 6.368 43.8899 6.368C43.4819 6.368 43.1099 6.464 42.7739 6.656C42.4379 6.848 42.1679 7.106 41.9639 7.43C41.7719 7.754 41.6759 8.114 41.6759 8.51V14H39.6239V8.51C39.6239 8.114 39.5219 7.754 39.3179 7.43C39.1139 7.106 38.8439 6.848 38.5079 6.656C38.1839 6.464 37.8179 6.368 37.4099 6.368C37.0019 6.368 36.6299 6.464 36.2939 6.656C35.9699 6.848 35.7059 7.106 35.5019 7.43C35.3099 7.754 35.2139 8.114 35.2139 8.51V14H33.1619ZM50.617 14V4.82H52.687V14H50.617ZM51.643 3.542C51.283 3.542 50.971 3.41 50.707 3.146C50.443 2.882 50.311 2.57 50.311 2.21C50.311 1.85 50.443 1.538 50.707 1.274C50.971 1.01 51.283 0.877999 51.643 0.877999C52.015 0.877999 52.327 1.01 52.579 1.274C52.843 1.538 52.975 1.85 52.975 2.21C52.975 2.57 52.843 2.882 52.579 3.146C52.327 3.41 52.015 3.542 51.643 3.542ZM55.1697 14V8.708C55.1697 7.916 55.3497 7.214 55.7097 6.602C56.0697 5.978 56.5797 5.492 57.2397 5.144C57.8997 4.784 58.6737 4.604 59.5617 4.604C60.4497 4.604 61.2177 4.784 61.8657 5.144C62.5257 5.492 63.0357 5.978 63.3957 6.602C63.7557 7.214 63.9357 7.916 63.9357 8.708V14H61.8837V8.726C61.8837 8.258 61.7757 7.85 61.5597 7.502C61.3437 7.142 61.0557 6.866 60.6957 6.674C60.3477 6.47 59.9637 6.368 59.5437 6.368C59.1357 6.368 58.7517 6.47 58.3917 6.674C58.0437 6.866 57.7617 7.142 57.5457 7.502C57.3417 7.85 57.2397 8.258 57.2397 8.726V14H55.1697ZM65.9517 16.754L66.8157 14.09C66.5037 13.982 66.2697 13.802 66.1137 13.55C65.9577 13.286 65.8797 13.016 65.8797 12.74C65.8797 12.344 66.0177 12.014 66.2937 11.75C66.5817 11.474 66.9237 11.336 67.3197 11.336C67.7517 11.336 68.0937 11.486 68.3457 11.786C68.6097 12.074 68.7417 12.422 68.7417 12.83C68.7417 13.106 68.7177 13.364 68.6697 13.604C68.6217 13.832 68.5437 14.096 68.4357 14.396L67.6797 16.754H65.9517ZM75.5269 14V1.4H80.8189C81.6229 1.4 82.3549 1.586 83.0149 1.958C83.6869 2.318 84.2209 2.828 84.6169 3.488C85.0129 4.136 85.2109 4.892 85.2109 5.756C85.2109 6.608 85.0129 7.364 84.6169 8.024C84.2329 8.684 83.7049 9.2 83.0329 9.572C82.3729 9.932 81.6289 10.112 80.8009 10.112H77.6689V14H75.5269ZM77.6689 8.222H80.5489C81.0169 8.222 81.4369 8.126 81.8089 7.934C82.1929 7.742 82.4929 7.46 82.7089 7.088C82.9369 6.716 83.0509 6.278 83.0509 5.774C83.0509 5.246 82.9369 4.802 82.7089 4.442C82.4929 4.07 82.1929 3.788 81.8089 3.596C81.4369 3.392 81.0229 3.29 80.5669 3.29H77.6689V8.222ZM91.0437 14.216C90.0957 14.216 89.2557 14.006 88.5237 13.586C87.7917 13.154 87.2097 12.578 86.7777 11.858C86.3577 11.126 86.1477 10.31 86.1477 9.41C86.1477 8.51 86.3577 7.7 86.7777 6.98C87.2097 6.248 87.7917 5.672 88.5237 5.252C89.2557 4.82 90.0957 4.604 91.0437 4.604C91.9797 4.604 92.8137 4.82 93.5457 5.252C94.2777 5.672 94.8537 6.242 95.2737 6.962C95.7057 7.682 95.9217 8.498 95.9217 9.41C95.9217 10.31 95.7057 11.126 95.2737 11.858C94.8537 12.578 94.2777 13.154 93.5457 13.586C92.8137 14.006 91.9797 14.216 91.0437 14.216ZM91.0437 12.452C91.6077 12.452 92.0997 12.32 92.5197 12.056C92.9397 11.78 93.2637 11.414 93.4917 10.958C93.7197 10.502 93.8337 9.986 93.8337 9.41C93.8337 8.846 93.7197 8.336 93.4917 7.88C93.2637 7.412 92.9397 7.046 92.5197 6.782C92.0997 6.506 91.6077 6.368 91.0437 6.368C90.4677 6.368 89.9697 6.506 89.5497 6.782C89.1417 7.046 88.8177 7.406 88.5777 7.862C88.3497 8.318 88.2357 8.834 88.2357 9.41C88.2357 9.974 88.3497 10.49 88.5777 10.958C88.8177 11.414 89.1417 11.78 89.5497 12.056C89.9697 12.32 90.4677 12.452 91.0437 12.452ZM97.8846 14V0.86H99.9546V14H97.8846ZM106.163 14.216C105.287 14.216 104.531 14 103.895 13.568C103.259 13.136 102.767 12.56 102.419 11.84C102.083 11.108 101.915 10.304 101.915 9.428C101.915 8.516 102.107 7.7 102.491 6.98C102.887 6.248 103.445 5.672 104.165 5.252C104.897 4.82 105.767 4.604 106.775 4.604C107.771 4.604 108.617 4.82 109.313 5.252C110.021 5.672 110.561 6.248 110.933 6.98C111.317 7.7 111.509 8.504 111.509 9.392V14H109.439V12.29H109.403C109.223 12.626 108.989 12.944 108.701 13.244C108.413 13.532 108.059 13.766 107.639 13.946C107.219 14.126 106.727 14.216 106.163 14.216ZM106.721 12.452C107.261 12.452 107.729 12.32 108.125 12.056C108.533 11.78 108.851 11.414 109.079 10.958C109.307 10.49 109.415 9.968 109.403 9.392C109.403 8.816 109.295 8.306 109.079 7.862C108.863 7.406 108.557 7.046 108.161 6.782C107.765 6.506 107.291 6.368 106.739 6.368C106.163 6.368 105.671 6.506 105.263 6.782C104.855 7.046 104.543 7.406 104.327 7.862C104.111 8.318 104.003 8.834 104.003 9.41C104.003 9.974 104.111 10.49 104.327 10.958C104.543 11.414 104.849 11.78 105.245 12.056C105.653 12.32 106.145 12.452 106.721 12.452ZM113.914 14V7.43C113.914 6.614 114.142 5.978 114.598 5.522C115.066 5.054 115.708 4.82 116.524 4.82H118.738V6.584H116.902C116.614 6.584 116.386 6.668 116.218 6.836C116.062 7.004 115.984 7.232 115.984 7.52V14H113.914ZM119.706 16.754L120.57 14.09C120.258 13.982 120.024 13.802 119.868 13.55C119.712 13.286 119.634 13.016 119.634 12.74C119.634 12.344 119.772 12.014 120.048 11.75C120.336 11.474 120.678 11.336 121.074 11.336C121.506 11.336 121.848 11.486 122.1 11.786C122.364 12.074 122.496 12.422 122.496 12.83C122.496 13.106 122.472 13.364 122.424 13.604C122.376 13.832 122.298 14.096 122.19 14.396L121.434 16.754H119.706ZM129.245 14V12.11H134.663C135.011 12.11 135.311 12.026 135.563 11.858C135.827 11.69 136.031 11.474 136.175 11.21C136.331 10.934 136.409 10.646 136.409 10.346C136.409 10.022 136.337 9.728 136.193 9.464C136.049 9.2 135.845 8.99 135.581 8.834C135.329 8.678 135.035 8.6 134.699 8.6H132.449C131.741 8.6 131.105 8.456 130.541 8.168C129.989 7.868 129.551 7.454 129.227 6.926C128.903 6.398 128.741 5.774 128.741 5.054C128.741 4.334 128.897 3.704 129.209 3.164C129.521 2.612 129.947 2.18 130.487 1.868C131.027 1.556 131.639 1.4 132.323 1.4H137.741V3.29H132.521C132.209 3.29 131.927 3.368 131.675 3.524C131.423 3.68 131.225 3.884 131.081 4.136C130.949 4.388 130.883 4.658 130.883 4.946C130.883 5.246 130.949 5.522 131.081 5.774C131.225 6.014 131.417 6.212 131.657 6.368C131.909 6.512 132.191 6.584 132.503 6.584H134.807C135.575 6.584 136.235 6.734 136.787 7.034C137.351 7.334 137.783 7.748 138.083 8.276C138.395 8.804 138.551 9.41 138.551 10.094C138.551 10.898 138.389 11.594 138.065 12.182C137.753 12.758 137.321 13.208 136.769 13.532C136.229 13.844 135.617 14 134.933 14H129.245ZM144.886 14.216C143.998 14.216 143.224 14.042 142.564 13.694C141.904 13.334 141.394 12.842 141.034 12.218C140.674 11.594 140.494 10.892 140.494 10.112V4.82H142.564V10.094C142.564 10.562 142.666 10.976 142.87 11.336C143.086 11.684 143.368 11.96 143.716 12.164C144.076 12.356 144.466 12.452 144.886 12.452C145.306 12.452 145.69 12.356 146.038 12.164C146.398 11.96 146.68 11.684 146.884 11.336C147.1 10.976 147.208 10.562 147.208 10.094V4.82H149.278V10.112C149.278 10.892 149.092 11.594 148.72 12.218C148.36 12.842 147.85 13.334 147.19 13.694C146.542 14.042 145.774 14.216 144.886 14.216ZM156.154 14.216C155.266 14.216 154.492 14.042 153.832 13.694C153.172 13.334 152.662 12.842 152.302 12.218C151.942 11.594 151.762 10.892 151.762 10.112V4.82H153.832V10.094C153.832 10.562 153.934 10.976 154.138 11.336C154.354 11.684 154.636 11.96 154.984 12.164C155.344 12.356 155.734 12.452 156.154 12.452C156.574 12.452 156.958 12.356 157.306 12.164C157.666 11.96 157.948 11.684 158.152 11.336C158.368 10.976 158.476 10.562 158.476 10.094V4.82H160.546V10.112C160.546 10.892 160.36 11.594 159.988 12.218C159.628 12.842 159.118 13.334 158.458 13.694C157.81 14.042 157.042 14.216 156.154 14.216ZM163.029 14V8.708C163.029 7.916 163.209 7.214 163.569 6.602C163.929 5.978 164.439 5.492 165.099 5.144C165.759 4.784 166.533 4.604 167.421 4.604C168.309 4.604 169.077 4.784 169.725 5.144C170.385 5.492 170.895 5.978 171.255 6.602C171.615 7.214 171.795 7.916 171.795 8.708V14H169.743V8.726C169.743 8.258 169.635 7.85 169.419 7.502C169.203 7.142 168.915 6.866 168.555 6.674C168.207 6.47 167.823 6.368 167.403 6.368C166.995 6.368 166.611 6.47 166.251 6.674C165.903 6.866 165.621 7.142 165.405 7.502C165.201 7.85 165.099 8.258 165.099 8.726V14H163.029ZM177.447 14C176.631 14 175.989 13.766 175.521 13.298C175.065 12.83 174.837 12.194 174.837 11.39V2.516H176.889V11.3C176.889 11.576 176.973 11.804 177.141 11.984C177.309 12.152 177.531 12.236 177.807 12.236H179.733V14H177.447ZM173.253 6.584V4.82H179.751V6.584H173.253ZM185.755 14.216C184.807 14.216 183.967 14.006 183.235 13.586C182.503 13.154 181.921 12.578 181.489 11.858C181.069 11.126 180.859 10.31 180.859 9.41C180.859 8.51 181.069 7.7 181.489 6.98C181.921 6.248 182.503 5.672 183.235 5.252C183.967 4.82 184.807 4.604 185.755 4.604C186.691 4.604 187.525 4.82 188.257 5.252C188.989 5.672 189.565 6.242 189.985 6.962C190.417 7.682 190.633 8.498 190.633 9.41C190.633 10.31 190.417 11.126 189.985 11.858C189.565 12.578 188.989 13.154 188.257 13.586C187.525 14.006 186.691 14.216 185.755 14.216ZM185.755 12.452C186.319 12.452 186.811 12.32 187.231 12.056C187.651 11.78 187.975 11.414 188.203 10.958C188.431 10.502 188.545 9.986 188.545 9.41C188.545 8.846 188.431 8.336 188.203 7.88C187.975 7.412 187.651 7.046 187.231 6.782C186.811 6.506 186.319 6.368 185.755 6.368C185.179 6.368 184.681 6.506 184.261 6.782C183.853 7.046 183.529 7.406 183.289 7.862C183.061 8.318 182.947 8.834 182.947 9.41C182.947 9.974 183.061 10.49 183.289 10.958C183.529 11.414 183.853 11.78 184.261 12.056C184.681 12.32 185.179 12.452 185.755 12.452Z" fill="white"/>
</svg>
